<?xml version="1.0" encoding="utf-8"?>
<!-- Generator: Adobe Illustrator 19.0.0, SVG Export Plug-In . SVG Version: 6.00 Build 0)  -->
<svg version="1.1" id="Layer_1" xmlns="http://www.w3.org/2000/svg" xmlns:xlink="http://www.w3.org/1999/xlink" x="0px" y="0px"
	 viewBox="0 0 1920 203.4" style="enable-background:new 0 0 1920 203.4;" xml:space="preserve">
<style type="text/css">
	.st0{fill:#1E242A;}
</style>
<path id="XMLID_2_" class="st0" d="M5,202.6c15-2.7,34.1-3.3,48.5-6.3c5.5-1.1,11.2-2.9,18.3-3.8c13-1.6,11.6-0.5,21.9,1.3
	c20,3.6,44.2,0.1,65.4,0.5c1.6,0.6,4.2,1,8,1.1c9.5,0.2,8.7-0.8,15.1-1.1c10.4-0.4,21.1-0.3,32-0.3c10.8,0,23-0.3,33.6,0
	c15.7,0.4,17.2,2.5,34.8,2.6c23.1,0.1,45.9-2.9,58.7-6.4c4.1-1.1,11.5-3.8,20.1-3.9c9-0.1,20.3,3.1,28.2,3.7
	c10.4,0.7,22.2-0.4,32.3,0.2c8.6,0.5,10.9,2,17.9,2.9c9.3,1.2,17,0.9,28.6,0.9c5.9,0,14.8-0.3,20.4-0.1c6.1,0.3,6.6,1.1,12.7,1.4
	c16.9,0.8,49.1,0.3,65.8-0.3c11.8-0.5,10.4-1.1,23.2,0c10.7,0.9,14,2,23.3,3.2c8.4,1.1,17.9,1.2,28.7,0.9c16.9-0.5,12.5-1.8,25-3.9
	c6.7-1.1,19.4-2.7,28.4-3.4c8.2-0.7,12.1-0.5,20-1.4c6.6-0.8,11.4-2.2,18.6-3c7.4-0.8,13.2-1.4,19.9-2.5c3.7-0.6,12.3-3.1,16.4-3.3
	c30.3-1.3,33.9,12.3,64.1,12.3c9.8-4.7,60.1-1.8,81.9-2.3c5.8-0.1,10.8-0.9,14.7-1c11.6-0.4,14.2,0.1,25.2,0.7
	c15.2,0.8,28.3-0.6,35.3-3.3c7.3,0.5,9.9,1.9,17.9,2.4c9.3,0.6,21.8,0,28.9-1c20.2-2.7,25.7-8.8,51.7-10.2c10.1-0.5,23,0.4,32.1-0.5
	c2.2-0.4,4.2-0.9,6.2-1.4c6.4-0.7,8.3-0.5,15.2-0.9c5.9-0.4,19.6-1.5,25.1-1.1c6.5,0.5,5.2,2,14.8,2.4c6.3,0.3,12.6-0.3,19.3,0.1
	c0.9,2.1,5.6,6.8,19.2,7.2c8.2-2.4,19.2-0.8,26.9,0.5c10.9,1.9,12.8,2.2,28.5,2.2c12.2,0,28.7-0.5,40.5-0.1
	c16.2,0.7,18.9,2.5,24.6,5.1c5.6,2.6,11.1,5.2,23.8,2.6c5.4-1.1,4.6-1.9,11.4-2.9c5-0.7,10.6-0.9,15.4-1.8
	c10.3-1.9,38.6-12.3,53.5-5.5c10.4-1,26.5-2.4,38.2-2.1c9.1,0.2,16.6,0.9,26.9,1c11.6,0.1,15.9-0.3,25.1-1.1
	c6.8,1.5,17.7,3.3,28.1,3.7c5.9,0.2,13.6-0.7,19.1,0.1c7.8,1.1,3.8,3,14.4,3.7c4.8,0.3,13.5,0,18.9,0.2c7.2,0.3,11.6,1,21.6,1
	c12.8-0.1,12.9,0,21.7,1.2c6,0.8,9.8,2,16.6,2.4c8-2.8,19.3-5.3,33.6-6.5c4.7-0.4,16.9-0.6,20.4-1.1c5.1-0.8,8.6-2.9,13-3.9
	c14.6-3.4,22.3-1,41.8-0.9c9.3,0.1,14.7,0.7,21.6,0.9c8.1,0.3,16.2,0.1,24.3,0.5c0.7,1.2,1.3,2.3,2,3.4c20.6,0.4,31.4,2.8,52.5,2.7
	c13.4-0.1,22.7,0.5,33.4,0.9V0H0v203.4C1.7,203.1,3.4,202.9,5,202.6z"/>
</svg>
